<svg width="1401" height="1024" viewBox="0 0 1401 1024" fill="none" xmlns="http://www.w3.org/2000/svg">
<path d="M797.871 754.808L705.724 547.051L493.882 641.024L586.028 848.781L797.871 754.808Z" fill="url(#paint0_linear_2_718)"/>
<path d="M890.018 962.565L797.872 754.808L678.176 1056.54L890.018 962.565Z" fill="url(#paint1_linear_2_718)"/>
<path d="M1194.01 1076.35L1101.86 868.593L890.018 962.566L1194.01 1076.35Z" fill="url(#paint2_linear_2_718)"/>
<path d="M1616.71 888.031L1524.6 680.349L1312.73 774.246L1404.87 982.003L1616.71 888.031Z" fill="url(#paint3_linear_2_718)"/>
<path d="M1101.86 868.593L1009.71 660.836L797.871 754.809C848.746 869.52 981.422 922.029 1094.22 872.013L1101.86 868.593Z" fill="url(#paint4_linear_2_718)"/>
<path d="M758.23 1020.18L714.18 1137.61L717.701 1145.68L766.207 1016.7L758.23 1020.18Z" fill="url(#paint5_linear_2_718)"/>
<path d="M793.591 1004.54L730.094 1173.58L733.69 1181.61L801.459 1001.02L793.591 1004.54Z" fill="url(#paint6_linear_2_718)"/>
<path d="M828.952 988.897L746.082 1209.51L749.603 1217.58L836.821 985.376L828.952 988.897Z" fill="url(#paint7_linear_2_718)"/>
<path d="M864.28 973.181L761.996 1245.48L765.592 1253.52L872.148 969.66L864.28 973.181Z" fill="url(#paint8_linear_2_718)"/>
<path d="M894.219 971.954L787.554 1255.77L795.456 1252.33L897.74 980.025L894.219 971.954Z" fill="url(#paint9_linear_2_718)"/>
<path d="M910.134 1007.92L822.916 1240.13L830.785 1236.61L913.73 1015.96L910.134 1007.92Z" fill="url(#paint10_linear_2_718)"/>
<path d="M1252.65 57.0538L1160.5 -150.703L1155.93 -148.658C1041.49 -97.904 989.897 36.2399 1040.81 151.026L1252.65 57.0538Z" fill="url(#paint11_linear_2_718)"/>
<path d="M1219.66 567.443L1127.51 359.686L915.668 453.659L1007.81 661.415L1219.66 567.443Z" fill="url(#paint12_linear_2_718)"/>
<path d="M1339.39 265.788L1247.24 58.0309L1035.4 152.004L1127.51 359.685L1339.39 265.788Z" fill="url(#paint13_linear_2_718)"/>
<path d="M1551.23 171.816L1459.08 -35.941L1247.24 58.0316L1339.39 265.788L1551.23 171.816Z" fill="url(#paint14_linear_2_718)"/>
<path d="M1643.38 379.572L1551.23 171.816L1543.59 175.235C1430.79 225.252 1380.62 358.759 1431.53 473.545L1643.38 379.572Z" fill="url(#paint15_linear_2_718)"/>
<path d="M1311.8 775.2L1219.66 567.443L1007.81 661.416L1099.93 869.097L1311.8 775.2Z" fill="url(#paint16_linear_2_718)"/>
<path d="M1523.65 681.227L1431.5 473.47L1219.66 567.443C1270.53 682.154 1403.21 734.663 1516 684.647L1523.65 681.227Z" fill="url(#paint17_linear_2_718)"/>
<path d="M833.223 241.65L827.959 255.815L831.447 263.81L841.091 238.13L833.223 241.65Z" fill="url(#paint18_linear_2_718)"/>
<path d="M868.551 225.934L843.84 291.71L847.436 299.746L876.453 222.489L868.551 225.934Z" fill="url(#paint19_linear_2_718)"/>
<path d="M903.912 210.293L859.753 327.68L863.349 335.717L911.78 206.772L903.912 210.293Z" fill="url(#paint20_linear_2_718)"/>
<path d="M939.239 194.577L875.742 363.616L879.338 371.653L947.141 191.131L939.239 194.577Z" fill="url(#paint21_linear_2_718)"/>
<path d="M974.6 178.936L891.656 399.587L895.252 407.624L982.469 175.415L974.6 178.936Z" fill="url(#paint22_linear_2_718)"/>
<path d="M1009.93 163.22L907.644 435.523L911.24 443.56L1017.83 159.774L1009.93 163.22Z" fill="url(#paint23_linear_2_718)"/>
<path d="M1039.79 162.027L933.236 445.888L941.104 442.368L1043.39 170.064L1039.79 162.027Z" fill="url(#paint24_linear_2_718)"/>
<path d="M1055.78 197.963L968.565 430.171L976.466 426.726L1059.38 206L1055.78 197.963Z" fill="url(#paint25_linear_2_718)"/>
<path d="M1071.73 234.008L1003.93 414.53L1011.79 411.009L1075.29 241.97L1071.73 234.008Z" fill="url(#paint26_linear_2_718)"/>
<path d="M1087.68 269.87L1039.25 398.814L1047.15 395.368L1091.28 277.906L1087.68 269.87Z" fill="url(#paint27_linear_2_718)"/>
<path d="M1103.6 305.839L1074.61 383.172L1082.48 379.652L1107.19 313.876L1103.6 305.839Z" fill="url(#paint28_linear_2_718)"/>
<path d="M1119.59 341.776L1109.98 367.531L1117.84 364.01L1123.11 349.846L1119.59 341.776Z" fill="url(#paint29_linear_2_718)"/>
<path d="M1309.42 -220.488L1226.58 0.204809L1230.1 8.27502L1317.32 -223.933L1309.42 -220.488Z" fill="url(#paint30_linear_2_718)"/>
<path d="M1344.78 -236.128L1242.5 36.1751L1246.06 44.1368L1352.65 -239.649L1344.78 -236.128Z" fill="url(#paint31_linear_2_718)"/>
<path d="M1374.72 -237.355L1268.06 46.4643L1275.96 43.0189L1378.24 -229.285L1374.72 -237.355Z" fill="url(#paint32_linear_2_718)"/>
<path d="M1390.63 -201.386L1303.42 30.8224L1311.29 27.3021L1394.23 -193.349L1390.63 -201.386Z" fill="url(#paint33_linear_2_718)"/>
<path d="M1406.55 -165.415L1338.75 15.1064L1346.65 11.661L1410.14 -157.379L1406.55 -165.415Z" fill="url(#paint34_linear_2_718)"/>
<defs>
<linearGradient id="paint0_linear_2_718" x1="494.801" y1="638.049" x2="798.656" y2="752.201" gradientUnits="userSpaceOnUse">
<stop stop-color="#B2F2F6"/>
<stop offset="0.8963" stop-color="#30ACCE"/>
</linearGradient>
<linearGradient id="paint1_linear_2_718" x1="735.125" y1="904.357" x2="889.844" y2="962.481" gradientUnits="userSpaceOnUse">
<stop offset="0.0842" stop-color="#E86A8C"/>
<stop offset="0.8676" stop-color="#E82A8C"/>
</linearGradient>
<linearGradient id="paint2_linear_2_718" x1="918.957" y1="884.983" x2="1222.81" y2="999.134" gradientUnits="userSpaceOnUse">
<stop offset="0.2046" stop-color="#F34E29"/>
<stop offset="0.8634" stop-color="#F1961C"/>
</linearGradient>
<linearGradient id="paint3_linear_2_718" x1="1313.64" y1="771.269" x2="1617.49" y2="885.421" gradientUnits="userSpaceOnUse">
<stop offset="0.1109" stop-color="#FAED7D"/>
<stop offset="0.8378" stop-color="#F0B018"/>
</linearGradient>
<linearGradient id="paint4_linear_2_718" x1="815.205" y1="708.147" x2="1119.06" y2="822.298" gradientUnits="userSpaceOnUse">
<stop offset="0.1037" stop-color="#3098CE"/>
<stop offset="1" stop-color="#3200AA"/>
</linearGradient>
<linearGradient id="paint5_linear_2_718" x1="715.899" y1="1144.95" x2="766.542" y2="1016.87" gradientUnits="userSpaceOnUse">
<stop offset="0.0842" stop-color="#E86A8C"/>
<stop offset="0.8676" stop-color="#E82A8C"/>
</linearGradient>
<linearGradient id="paint6_linear_2_718" x1="731.844" y1="1180.9" x2="802.76" y2="1001.55" gradientUnits="userSpaceOnUse">
<stop offset="0.0842" stop-color="#E86A8C"/>
<stop offset="0.8676" stop-color="#E82A8C"/>
</linearGradient>
<linearGradient id="paint7_linear_2_718" x1="747.79" y1="1216.86" x2="838.981" y2="986.227" gradientUnits="userSpaceOnUse">
<stop offset="0.0842" stop-color="#E86A8C"/>
<stop offset="0.8676" stop-color="#E82A8C"/>
</linearGradient>
<linearGradient id="paint8_linear_2_718" x1="763.738" y1="1252.81" x2="875.205" y2="970.9" gradientUnits="userSpaceOnUse">
<stop offset="0.0842" stop-color="#E86A8C"/>
<stop offset="0.8676" stop-color="#E82A8C"/>
</linearGradient>
<linearGradient id="paint9_linear_2_718" x1="791.478" y1="1257.37" x2="902.944" y2="975.458" gradientUnits="userSpaceOnUse">
<stop offset="0.0842" stop-color="#E86A8C"/>
<stop offset="0.8676" stop-color="#E82A8C"/>
</linearGradient>
<linearGradient id="paint10_linear_2_718" x1="826.822" y1="1241.69" x2="918.013" y2="1011.07" gradientUnits="userSpaceOnUse">
<stop offset="0.0842" stop-color="#E86A8C"/>
<stop offset="0.8676" stop-color="#E82A8C"/>
</linearGradient>
<linearGradient id="paint11_linear_2_718" x1="1037.04" y1="-25.1565" x2="1252.88" y2="55.9305" gradientUnits="userSpaceOnUse">
<stop offset="0.2046" stop-color="#F34E29"/>
<stop offset="0.8634" stop-color="#F1961C"/>
</linearGradient>
<linearGradient id="paint12_linear_2_718" x1="916.6" y1="450.672" x2="1220.45" y2="564.823" gradientUnits="userSpaceOnUse">
<stop offset="0.0842" stop-color="#E86A8C"/>
<stop offset="0.8676" stop-color="#E82A8C"/>
</linearGradient>
<linearGradient id="paint13_linear_2_718" x1="1036.3" y1="149.003" x2="1340.15" y2="263.154" gradientUnits="userSpaceOnUse">
<stop offset="0.1109" stop-color="#FAED7D"/>
<stop offset="0.8378" stop-color="#F0B018"/>
</linearGradient>
<linearGradient id="paint14_linear_2_718" x1="1248.15" y1="55.0595" x2="1552" y2="169.21" gradientUnits="userSpaceOnUse">
<stop offset="0.1037" stop-color="#3098CE"/>
<stop offset="1" stop-color="#3200AA"/>
</linearGradient>
<linearGradient id="paint15_linear_2_718" x1="1478.78" y1="492.218" x2="1598.12" y2="190.399" gradientUnits="userSpaceOnUse">
<stop stop-color="#B2F2F6"/>
<stop offset="0.8963" stop-color="#30ACCE"/>
</linearGradient>
<linearGradient id="paint16_linear_2_718" x1="1008.75" y1="658.396" x2="1312.6" y2="772.547" gradientUnits="userSpaceOnUse">
<stop stop-color="#9A00E9"/>
<stop offset="0.058" stop-color="#8E00DC"/>
<stop offset="0.2411" stop-color="#6C01B9"/>
<stop offset="0.427" stop-color="#51019E"/>
<stop offset="0.6144" stop-color="#3E028B"/>
<stop offset="0.8041" stop-color="#33027F"/>
<stop offset="1" stop-color="#2F027B"/>
</linearGradient>
<linearGradient id="paint17_linear_2_718" x1="1237" y1="520.77" x2="1540.86" y2="634.92" gradientUnits="userSpaceOnUse">
<stop offset="0.0842" stop-color="#E86A8C"/>
<stop offset="0.8676" stop-color="#E82A8C"/>
</linearGradient>
<linearGradient id="paint18_linear_2_718" x1="829.689" y1="263.144" x2="839.783" y2="237.615" gradientUnits="userSpaceOnUse">
<stop offset="0.2046" stop-color="#F34E29"/>
<stop offset="0.8634" stop-color="#F1961C"/>
</linearGradient>
<linearGradient id="paint19_linear_2_718" x1="845.637" y1="299.095" x2="876.005" y2="222.291" gradientUnits="userSpaceOnUse">
<stop offset="0.2046" stop-color="#F34E29"/>
<stop offset="0.8634" stop-color="#F1961C"/>
</linearGradient>
<linearGradient id="paint20_linear_2_718" x1="861.583" y1="335.046" x2="912.226" y2="206.966" gradientUnits="userSpaceOnUse">
<stop offset="0.2046" stop-color="#F34E29"/>
<stop offset="0.8634" stop-color="#F1961C"/>
</linearGradient>
<linearGradient id="paint21_linear_2_718" x1="877.528" y1="370.999" x2="948.445" y2="191.644" gradientUnits="userSpaceOnUse">
<stop offset="0.2046" stop-color="#F34E29"/>
<stop offset="0.8634" stop-color="#F1961C"/>
</linearGradient>
<linearGradient id="paint22_linear_2_718" x1="893.475" y1="406.95" x2="984.667" y2="176.32" gradientUnits="userSpaceOnUse">
<stop offset="0.2046" stop-color="#F34E29"/>
<stop offset="0.8634" stop-color="#F1961C"/>
</linearGradient>
<linearGradient id="paint23_linear_2_718" x1="909.422" y1="442.902" x2="1020.89" y2="160.994" gradientUnits="userSpaceOnUse">
<stop offset="0.2046" stop-color="#F34E29"/>
<stop offset="0.8634" stop-color="#F1961C"/>
</linearGradient>
<linearGradient id="paint24_linear_2_718" x1="937.163" y1="447.459" x2="1048.63" y2="165.553" gradientUnits="userSpaceOnUse">
<stop offset="0.2046" stop-color="#F34E29"/>
<stop offset="0.8634" stop-color="#F1961C"/>
</linearGradient>
<linearGradient id="paint25_linear_2_718" x1="972.506" y1="431.787" x2="1063.7" y2="201.158" gradientUnits="userSpaceOnUse">
<stop offset="0.2046" stop-color="#F34E29"/>
<stop offset="0.8634" stop-color="#F1961C"/>
</linearGradient>
<linearGradient id="paint26_linear_2_718" x1="1007.85" y1="416.117" x2="1078.77" y2="236.765" gradientUnits="userSpaceOnUse">
<stop offset="0.2046" stop-color="#F34E29"/>
<stop offset="0.8634" stop-color="#F1961C"/>
</linearGradient>
<linearGradient id="paint27_linear_2_718" x1="1043.19" y1="400.446" x2="1093.83" y2="272.365" gradientUnits="userSpaceOnUse">
<stop offset="0.2046" stop-color="#F34E29"/>
<stop offset="0.8634" stop-color="#F1961C"/>
</linearGradient>
<linearGradient id="paint28_linear_2_718" x1="1078.53" y1="384.774" x2="1108.9" y2="307.971" gradientUnits="userSpaceOnUse">
<stop offset="0.2046" stop-color="#F34E29"/>
<stop offset="0.8634" stop-color="#F1961C"/>
</linearGradient>
<linearGradient id="paint29_linear_2_718" x1="1113.88" y1="369.102" x2="1123.97" y2="343.577" gradientUnits="userSpaceOnUse">
<stop offset="0.2046" stop-color="#F34E29"/>
<stop offset="0.8634" stop-color="#F1961C"/>
</linearGradient>
<linearGradient id="paint30_linear_2_718" x1="1228.35" y1="7.57083" x2="1319.54" y2="-223.06" gradientUnits="userSpaceOnUse">
<stop stop-color="#9A00E9"/>
<stop offset="0.058" stop-color="#8E00DC"/>
<stop offset="0.2411" stop-color="#6C01B9"/>
<stop offset="0.427" stop-color="#51019E"/>
<stop offset="0.6144" stop-color="#3E028B"/>
<stop offset="0.8041" stop-color="#33027F"/>
<stop offset="1" stop-color="#2F027B"/>
</linearGradient>
<linearGradient id="paint31_linear_2_718" x1="1244.3" y1="43.5208" x2="1355.76" y2="-238.385" gradientUnits="userSpaceOnUse">
<stop stop-color="#9A00E9"/>
<stop offset="0.058" stop-color="#8E00DC"/>
<stop offset="0.2411" stop-color="#6C01B9"/>
<stop offset="0.427" stop-color="#51019E"/>
<stop offset="0.6144" stop-color="#3E028B"/>
<stop offset="0.8041" stop-color="#33027F"/>
<stop offset="1" stop-color="#2F027B"/>
</linearGradient>
<linearGradient id="paint32_linear_2_718" x1="1272.04" y1="48.0785" x2="1383.5" y2="-233.827" gradientUnits="userSpaceOnUse">
<stop stop-color="#9A00E9"/>
<stop offset="0.058" stop-color="#8E00DC"/>
<stop offset="0.2411" stop-color="#6C01B9"/>
<stop offset="0.427" stop-color="#51019E"/>
<stop offset="0.6144" stop-color="#3E028B"/>
<stop offset="0.8041" stop-color="#33027F"/>
<stop offset="1" stop-color="#2F027B"/>
</linearGradient>
<linearGradient id="paint33_linear_2_718" x1="1307.38" y1="32.4075" x2="1398.57" y2="-198.221" gradientUnits="userSpaceOnUse">
<stop stop-color="#9A00E9"/>
<stop offset="0.058" stop-color="#8E00DC"/>
<stop offset="0.2411" stop-color="#6C01B9"/>
<stop offset="0.427" stop-color="#51019E"/>
<stop offset="0.6144" stop-color="#3E028B"/>
<stop offset="0.8041" stop-color="#33027F"/>
<stop offset="1" stop-color="#2F027B"/>
</linearGradient>
<linearGradient id="paint34_linear_2_718" x1="1342.72" y1="16.7375" x2="1413.64" y2="-162.615" gradientUnits="userSpaceOnUse">
<stop stop-color="#9A00E9"/>
<stop offset="0.058" stop-color="#8E00DC"/>
<stop offset="0.2411" stop-color="#6C01B9"/>
<stop offset="0.427" stop-color="#51019E"/>
<stop offset="0.6144" stop-color="#3E028B"/>
<stop offset="0.8041" stop-color="#33027F"/>
<stop offset="1" stop-color="#2F027B"/>
</linearGradient>
</defs>
</svg>
