<svg width="1440" height="960" viewBox="0 0 1440 960" fill="none" xmlns="http://www.w3.org/2000/svg">
<g clip-path="url(#clip0_1_1307)">
<rect width="1440" height="960" fill="white"/>
<path fill-rule="evenodd" clip-rule="evenodd" d="M0 643.557C34.7877 660.242 74.6279 668.027 120.169 664.701C194.502 659.273 231.924 588.409 269.766 516.752C288.235 481.778 306.804 446.615 329.813 418.778C353 390.726 379.011 367.717 403.98 345.628C464.855 291.778 519.543 243.4 512.048 140.766C511.291 89.9736 504.692 42.9885 493.149 0H0V643.557Z" fill="#29406E"/>
<path d="M1024.25 495.55C1041.89 463.3 1074.67 420 1112 364C1230 187 1351.62 214.15 1439.71 176V393V960H686.614C680.051 928.74 683.128 892.38 690.249 863.106C697.674 832.581 706.091 800.638 723.36 773.995C739.784 748.655 765.549 733.201 789.36 715.883C843.433 676.558 920.359 659.105 961.805 603.55C975.846 584.729 989.562 567.172 1000.92 546.439C1009.9 530.029 1015.27 511.966 1024.25 495.55Z" fill="#B82B2B"/>
<circle cx="1037" cy="13" r="9" fill="#F2C94C"/>
<circle cx="1063" cy="13" r="9" fill="#F2C94C"/>
<circle cx="1089" cy="13" r="9" fill="#F2C94C"/>
<circle cx="1115" cy="13" r="9" fill="#F2C94C"/>
<circle cx="1141" cy="13" r="9" fill="#F2C94C"/>
<circle cx="1167" cy="13" r="9" fill="#F2C94C"/>
<circle cx="1193" cy="13" r="9" fill="#F2C94C"/>
<circle cx="1219" cy="13" r="9" fill="#F2C94C"/>
<circle cx="1245" cy="13" r="9" fill="#F2C94C"/>
<circle cx="1271" cy="13" r="9" fill="#F2C94C"/>
<circle cx="1297" cy="13" r="9" fill="#F2C94C"/>
<circle cx="1323" cy="13" r="9" fill="#F2C94C"/>
<circle cx="1349" cy="13" r="9" fill="#F2C94C"/>
<circle cx="1375" cy="13" r="9" fill="#F2C94C"/>
<circle cx="1401" cy="13" r="9" fill="#F2C94C"/>
<circle cx="1427" cy="13" r="9" fill="#F2C94C"/>
<circle cx="1037" cy="39" r="9" fill="#F2C94C"/>
<circle cx="1063" cy="39" r="9" fill="#F2C94C"/>
<circle cx="1089" cy="39" r="9" fill="#F2C94C"/>
<circle cx="1115" cy="39" r="9" fill="#F2C94C"/>
<circle cx="1141" cy="39" r="9" fill="#F2C94C"/>
<circle cx="1167" cy="39" r="9" fill="#F2C94C"/>
<circle cx="1193" cy="39" r="9" fill="#F2C94C"/>
<circle cx="1219" cy="39" r="9" fill="#F2C94C"/>
<circle cx="1245" cy="39" r="9" fill="#F2C94C"/>
<circle cx="1271" cy="39" r="9" fill="#F2C94C"/>
<circle cx="1297" cy="39" r="9" fill="#F2C94C"/>
<circle cx="1323" cy="39" r="9" fill="#F2C94C"/>
<circle cx="1349" cy="39" r="9" fill="#F2C94C"/>
<circle cx="1375" cy="39" r="9" fill="#F2C94C"/>
<circle cx="1401" cy="39" r="9" fill="#F2C94C"/>
<circle cx="1427" cy="39" r="9" fill="#F2C94C"/>
<circle cx="1037" cy="65" r="9" fill="#F2C94C"/>
<circle cx="1063" cy="65" r="9" fill="#F2C94C"/>
<circle cx="1089" cy="65" r="9" fill="#F2C94C"/>
<circle cx="1115" cy="65" r="9" fill="#F2C94C"/>
<circle cx="1141" cy="65" r="9" fill="#F2C94C"/>
<circle cx="1167" cy="65" r="9" fill="#F2C94C"/>
<circle cx="1193" cy="65" r="9" fill="#F2C94C"/>
<circle cx="1219" cy="65" r="9" fill="#F2C94C"/>
<circle cx="1245" cy="65" r="9" fill="#F2C94C"/>
<circle cx="1271" cy="65" r="9" fill="#F2C94C"/>
<circle cx="1297" cy="65" r="9" fill="#F2C94C"/>
<circle cx="1323" cy="65" r="9" fill="#F2C94C"/>
<circle cx="1349" cy="65" r="9" fill="#F2C94C"/>
<circle cx="1375" cy="65" r="9" fill="#F2C94C"/>
<circle cx="1401" cy="65" r="9" fill="#F2C94C"/>
<circle cx="1427" cy="65" r="9" fill="#F2C94C"/>
<circle cx="1037" cy="91" r="9" fill="#F2C94C"/>
<circle cx="1063" cy="91" r="9" fill="#F2C94C"/>
<circle cx="1089" cy="91" r="9" fill="#F2C94C"/>
<circle cx="1115" cy="91" r="9" fill="#F2C94C"/>
<circle cx="1141" cy="91" r="9" fill="#F2C94C"/>
<circle cx="1167" cy="91" r="9" fill="#F2C94C"/>
<circle cx="1193" cy="91" r="9" fill="#F2C94C"/>
<circle cx="1219" cy="91" r="9" fill="#F2C94C"/>
<circle cx="1245" cy="91" r="9" fill="#F2C94C"/>
<circle cx="1271" cy="91" r="9" fill="#F2C94C"/>
<circle cx="1297" cy="91" r="9" fill="#F2C94C"/>
<circle cx="1323" cy="91" r="9" fill="#F2C94C"/>
<circle cx="1349" cy="91" r="9" fill="#F2C94C"/>
<circle cx="1375" cy="91" r="9" fill="#F2C94C"/>
<circle cx="1401" cy="91" r="9" fill="#F2C94C"/>
<circle cx="1427" cy="91" r="9" fill="#F2C94C"/>
<circle cx="1037" cy="117" r="9" fill="#F2C94C"/>
<circle cx="1063" cy="117" r="9" fill="#F2C94C"/>
<circle cx="1089" cy="117" r="9" fill="#F2C94C"/>
<circle cx="1115" cy="117" r="9" fill="#F2C94C"/>
<circle cx="1141" cy="117" r="9" fill="#F2C94C"/>
<circle cx="1167" cy="117" r="9" fill="#F2C94C"/>
<circle cx="1193" cy="117" r="9" fill="#F2C94C"/>
<circle cx="1219" cy="117" r="9" fill="#F2C94C"/>
<circle cx="1245" cy="117" r="9" fill="#F2C94C"/>
<circle cx="1271" cy="117" r="9" fill="#F2C94C"/>
<circle cx="1297" cy="117" r="9" fill="#F2C94C"/>
<circle cx="1323" cy="117" r="9" fill="#F2C94C"/>
<circle cx="1349" cy="117" r="9" fill="#F2C94C"/>
<circle cx="1375" cy="117" r="9" fill="#F2C94C"/>
<circle cx="1401" cy="117" r="9" fill="#F2C94C"/>
<circle cx="1427" cy="117" r="9" fill="#F2C94C"/>
<circle cx="1037" cy="143" r="9" fill="#F2C94C"/>
<circle cx="1063" cy="143" r="9" fill="#F2C94C"/>
<circle cx="1089" cy="143" r="9" fill="#F2C94C"/>
<circle cx="1115" cy="143" r="9" fill="#F2C94C"/>
<circle cx="1141" cy="143" r="9" fill="#F2C94C"/>
<circle cx="1167" cy="143" r="9" fill="#F2C94C"/>
<circle cx="1193" cy="143" r="9" fill="#F2C94C"/>
<circle cx="1219" cy="143" r="9" fill="#F2C94C"/>
<circle cx="1245" cy="143" r="9" fill="#F2C94C"/>
<circle cx="1271" cy="143" r="9" fill="#F2C94C"/>
<circle cx="1297" cy="143" r="9" fill="#F2C94C"/>
<circle cx="1323" cy="143" r="9" fill="#F2C94C"/>
<circle cx="1349" cy="143" r="9" fill="#F2C94C"/>
<circle cx="1375" cy="143" r="9" fill="#F2C94C"/>
<circle cx="1401" cy="143" r="9" fill="#F2C94C"/>
<circle cx="1427" cy="143" r="9" fill="#F2C94C"/>
<circle cx="1037" cy="169" r="9" fill="#F2C94C"/>
<circle cx="1063" cy="169" r="9" fill="#F2C94C"/>
<circle cx="1089" cy="169" r="9" fill="#F2C94C"/>
<circle cx="1115" cy="169" r="9" fill="#F2C94C"/>
<circle cx="1141" cy="169" r="9" fill="#F2C94C"/>
<circle cx="1167" cy="169" r="9" fill="#F2C94C"/>
<circle cx="1193" cy="169" r="9" fill="#F2C94C"/>
<circle cx="1219" cy="169" r="9" fill="#F2C94C"/>
<circle cx="1245" cy="169" r="9" fill="#F2C94C"/>
<circle cx="1271" cy="169" r="9" fill="#F2C94C"/>
<circle cx="1297" cy="169" r="9" fill="#F2C94C"/>
<circle cx="1323" cy="169" r="9" fill="#F2C94C"/>
<circle cx="1349" cy="169" r="9" fill="#F2C94C"/>
<circle cx="1375" cy="169" r="9" fill="#F2C94C"/>
<circle cx="1401" cy="169" r="9" fill="#F2C94C"/>
<circle cx="1427" cy="169" r="9" fill="#F2C94C"/>
<circle cx="1037" cy="195" r="9" fill="#F2C94C"/>
<circle cx="1063" cy="195" r="9" fill="#F2C94C"/>
<circle cx="1089" cy="195" r="9" fill="#F2C94C"/>
<circle cx="1115" cy="195" r="9" fill="#F2C94C"/>
<circle cx="1141" cy="195" r="9" fill="#F2C94C"/>
<circle cx="1167" cy="195" r="9" fill="#F2C94C"/>
<circle cx="1193" cy="195" r="9" fill="#F2C94C"/>
<circle cx="1219" cy="195" r="9" fill="#F2C94C"/>
<circle cx="1245" cy="195" r="9" fill="#F2C94C"/>
<circle cx="1271" cy="195" r="9" fill="#F2C94C"/>
<circle cx="1297" cy="195" r="9" fill="#F2C94C"/>
<circle cx="1323" cy="195" r="9" fill="#F2C94C"/>
<circle cx="1349" cy="195" r="9" fill="#F2C94C"/>
<circle cx="1375" cy="195" r="9" fill="#F2C94C"/>
<circle cx="1401" cy="195" r="9" fill="#F2C94C"/>
<circle cx="1427" cy="195" r="9" fill="#F2C94C"/>
<circle cx="1037" cy="221" r="9" fill="#F2C94C"/>
<circle cx="1063" cy="221" r="9" fill="#F2C94C"/>
<circle cx="1089" cy="221" r="9" fill="#F2C94C"/>
<circle cx="1115" cy="221" r="9" fill="#F2C94C"/>
<circle cx="1141" cy="221" r="9" fill="#F2C94C"/>
<circle cx="1167" cy="221" r="9" fill="#F2C94C"/>
<circle cx="1193" cy="221" r="9" fill="#F2C94C"/>
<circle cx="1219" cy="221" r="9" fill="#F2C94C"/>
<circle cx="1245" cy="221" r="9" fill="#F2C94C"/>
<circle cx="1271" cy="221" r="9" fill="#F2C94C"/>
<circle cx="1297" cy="221" r="9" fill="#F2C94C"/>
<circle cx="1323" cy="221" r="9" fill="#F2C94C"/>
<circle cx="1349" cy="221" r="9" fill="#F2C94C"/>
<circle cx="1375" cy="221" r="9" fill="#F2C94C"/>
<circle cx="1401" cy="221" r="9" fill="#F2C94C"/>
<circle cx="1427" cy="221" r="9" fill="#F2C94C"/>
<circle cx="1037" cy="247" r="9" fill="#F2C94C"/>
<circle cx="1063" cy="247" r="9" fill="#F2C94C"/>
<circle cx="1089" cy="247" r="9" fill="#F2C94C"/>
<circle cx="1115" cy="247" r="9" fill="#F2C94C"/>
<circle cx="1141" cy="247" r="9" fill="#F2C94C"/>
<circle cx="1167" cy="247" r="9" fill="#F2C94C"/>
<circle cx="1193" cy="247" r="9" fill="#F2C94C"/>
<circle cx="1219" cy="247" r="9" fill="#F2C94C"/>
<circle cx="1245" cy="247" r="9" fill="#F2C94C"/>
<circle cx="1271" cy="247" r="9" fill="#F2C94C"/>
<circle cx="1297" cy="247" r="9" fill="#F2C94C"/>
<circle cx="1323" cy="247" r="9" fill="#F2C94C"/>
<circle cx="1349" cy="247" r="9" fill="#F2C94C"/>
<circle cx="1375" cy="247" r="9" fill="#F2C94C"/>
<circle cx="1401" cy="247" r="9" fill="#F2C94C"/>
<circle cx="1427" cy="247" r="9" fill="#F2C94C"/>
<circle cx="1037" cy="273" r="9" fill="#F2C94C"/>
<circle cx="1063" cy="273" r="9" fill="#F2C94C"/>
<circle cx="1089" cy="273" r="9" fill="#F2C94C"/>
<circle cx="1115" cy="273" r="9" fill="#F2C94C"/>
<circle cx="1141" cy="273" r="9" fill="#F2C94C"/>
<circle cx="1167" cy="273" r="9" fill="#F2C94C"/>
<circle cx="1193" cy="273" r="9" fill="#F2C94C"/>
<circle cx="1219" cy="273" r="9" fill="#F2C94C"/>
<circle cx="1245" cy="273" r="9" fill="#F2C94C"/>
<circle cx="1271" cy="273" r="9" fill="#F2C94C"/>
<circle cx="1297" cy="273" r="9" fill="#F2C94C"/>
<circle cx="1323" cy="273" r="9" fill="#F2C94C"/>
<circle cx="1349" cy="273" r="9" fill="#F2C94C"/>
<circle cx="1375" cy="273" r="9" fill="#F2C94C"/>
<circle cx="1401" cy="273" r="9" fill="#F2C94C"/>
<circle cx="1427" cy="273" r="9" fill="#F2C94C"/>
</g>
<defs>
<clipPath id="clip0_1_1307">
<rect width="1440" height="960" fill="white"/>
</clipPath>
</defs>
</svg>
